<svg width="231" height="260" viewBox="0 0 231 260" fill="none" xmlns="http://www.w3.org/2000/svg">
<rect x="16" y="30" width="200" height="200" rx="30" fill="#9C27B0"/>
<path d="M176.547 109.172C176.406 109.828 176.102 110.344 175.633 110.719C175.164 111.094 174.648 111.281 174.086 111.281C173.242 111.281 172.562 111.023 172.047 110.508C171.531 109.945 171.273 109.312 171.273 108.609C171.273 107.906 171.344 107.227 171.484 106.57C171.625 105.867 171.695 105.188 171.695 104.531C171.695 101.109 170.641 98.0391 168.531 95.3203C166.422 92.6016 163.422 90.3281 159.531 88.5C155.688 86.625 151 85.1953 145.469 84.2109C139.938 83.2266 133.773 82.7344 126.977 82.7344C121.773 82.7344 116.523 83.0859 111.227 83.7891C105.977 84.4453 100.914 85.4297 96.0391 86.7422C91.2109 88.0078 86.6875 89.625 82.4688 91.5938C78.25 93.5156 74.5703 95.7656 71.4297 98.3438C68.3359 100.875 65.8984 103.711 64.1172 106.852C62.3359 109.945 61.4453 113.344 61.4453 117.047C61.4453 119.906 62.0547 122.438 63.2734 124.641C64.5391 126.797 66.25 128.695 68.4062 130.336C70.5625 131.93 73.0938 133.312 76 134.484C78.9531 135.609 82.1406 136.57 85.5625 137.367C88.9844 138.117 92.5469 138.75 96.25 139.266C99.9531 139.734 103.68 140.133 107.43 140.461L118.258 141.375C123.648 141.844 128.477 142.336 132.742 142.852C137.008 143.367 140.758 144.023 143.992 144.82C149.383 146.18 153.367 148.125 155.945 150.656C158.523 153.188 159.812 156.562 159.812 160.781C159.812 164.859 158.688 168.445 156.438 171.539C154.188 174.633 151.117 177.234 147.227 179.344C143.336 181.453 138.789 183.047 133.586 184.125C128.383 185.203 122.805 185.742 116.852 185.742C110.383 185.742 104.688 185.297 99.7656 184.406C94.8906 183.562 90.7891 182.625 87.4609 181.594C84.1797 180.516 81.6719 179.531 79.9375 178.641C78.2031 177.75 77.2656 177.258 77.125 177.164C76.2812 176.695 75.8594 175.945 75.8594 174.914C75.8594 174.117 76.1406 173.484 76.7031 173.016C77.2656 172.5 77.875 172.242 78.5312 172.242C79.0469 172.242 79.5156 172.383 79.9375 172.664C79.9844 172.664 80.7812 173.086 82.3281 173.93C83.9219 174.727 86.2656 175.617 89.3594 176.602C92.5 177.586 96.3672 178.477 100.961 179.273C105.555 180.07 110.898 180.469 116.992 180.469C123.039 180.469 128.383 179.977 133.023 178.992C137.664 178.008 141.555 176.648 144.695 174.914C147.883 173.133 150.273 171.07 151.867 168.727C153.508 166.336 154.328 163.758 154.328 160.992C154.328 159.352 154.023 157.945 153.414 156.773C152.852 155.555 152.055 154.523 151.023 153.68C149.992 152.789 148.75 152.039 147.297 151.43C145.891 150.82 144.344 150.305 142.656 149.883C140.875 149.414 138.953 149.016 136.891 148.688C134.875 148.359 132.789 148.078 130.633 147.844C128.477 147.609 126.297 147.398 124.094 147.211C121.938 147.023 119.805 146.836 117.695 146.648L106.867 145.734C98.3359 145.031 90.8828 143.953 84.5078 142.5C78.1797 141 72.9062 139.102 68.6875 136.805C64.4688 134.461 61.3047 131.672 59.1953 128.438C57.0859 125.203 56.0312 121.43 56.0312 117.117C56.0312 112.711 57.0156 108.68 58.9844 105.023C61 101.32 63.7188 97.9922 67.1406 95.0391C70.6094 92.0859 74.6406 89.5312 79.2344 87.375C83.875 85.1719 88.8203 83.3438 94.0703 81.8906C99.3203 80.4375 104.758 79.3594 110.383 78.6562C116.008 77.9062 121.539 77.5312 126.977 77.5312C133.773 77.5312 139.68 77.9531 144.695 78.7969C149.758 79.5938 154.07 80.6484 157.633 81.9609C161.242 83.2266 164.195 84.6797 166.492 86.3203C168.789 87.9609 170.641 89.5781 172.047 91.1719C175.375 95.0625 177.039 99.4922 177.039 104.461C177.039 106.102 176.875 107.672 176.547 109.172Z" fill="white"/>
<path d="M164.969 181.094C166.219 180.781 167.547 180.625 168.953 180.625C171.984 180.625 174.609 181.344 176.828 182.781C179.078 184.219 180.438 186.297 180.906 189.016C179.938 191.234 178.5 193.703 176.594 196.422C174.688 199.109 172.609 201.641 170.359 204.016C168.141 206.391 166.062 208.234 164.125 209.547L157.938 205.609L164.969 181.094ZM187.516 181.094C188.766 180.781 190.094 180.625 191.5 180.625C194.531 180.625 197.156 181.344 199.375 182.781C201.625 184.219 202.984 186.297 203.453 189.016C202.484 191.234 201.047 193.703 199.141 196.422C197.234 199.109 195.156 201.641 192.906 204.016C190.688 206.391 188.609 208.234 186.672 209.547L180.484 205.609L187.516 181.094Z" fill="white"/>
<path d="M66.0312 78.9062C64.7812 79.2188 63.4531 79.375 62.0469 79.375C59.0156 79.375 56.3906 78.6562 54.1719 77.2188C51.9219 75.7812 50.5625 73.7031 50.0938 70.9844C51.0625 68.7656 52.5 66.2969 54.4062 63.5781C56.3125 60.8906 58.3906 58.3594 60.6406 55.9844C62.8594 53.6094 64.9375 51.7656 66.875 50.4531L73.0625 54.3906L66.0312 78.9062ZM43.4844 78.9062C42.2344 79.2188 40.9062 79.375 39.5 79.375C36.4688 79.375 33.8438 78.6562 31.625 77.2188C29.375 75.7812 28.0156 73.7031 27.5469 70.9844C28.5156 68.7656 29.9531 66.2969 31.8594 63.5781C33.7656 60.8906 35.8438 58.3594 38.0938 55.9844C40.3125 53.6094 42.3906 51.7656 44.3281 50.4531L50.5156 54.3906L43.4844 78.9062Z" fill="white"/>
</svg>
